HIERARCHY
ROOT Hips
{
	OFFSET 0.000000 0.000000 0.255553
	CHANNELS 6 Xposition Yposition Zposition Xrotation Yrotation Zrotation
	JOINT Spine
	{
		OFFSET 0.000000 0.003143 0.025413
		CHANNELS 6 Xposition Yposition Zposition Xrotation Yrotation Zrotation
		JOINT Spine1
		{
			OFFSET -0.000003 0.003642 0.029822
			CHANNELS 6 Xposition Yposition Zposition Xrotation Yrotation Zrotation
			JOINT Spine2
			{
				OFFSET -0.000003 0.004165 0.034213
				CHANNELS 6 Xposition Yposition Zposition Xrotation Yrotation Zrotation
				JOINT Neck
				{
					OFFSET -0.000003 -0.002031 0.038496
					CHANNELS 6 Xposition Yposition Zposition Xrotation Yrotation Zrotation
					JOINT Head
					{
						OFFSET -0.000002 -0.008047 0.026433
						CHANNELS 6 Xposition Yposition Zposition Xrotation Yrotation Zrotation
						JOINT HeadTop_End
						{
							OFFSET -0.000004 -0.016995 0.047311
							CHANNELS 6 Xposition Yposition Zposition Xrotation Yrotation Zrotation
							End Site
							{
								OFFSET -0.000004 0.000000 0.050271
							}
						}
					}
				}
				JOINT LeftShoulder
				{
					OFFSET 0.015634 -0.001807 0.023332
					CHANNELS 6 Xposition Yposition Zposition Xrotation Yrotation Zrotation
					JOINT LeftArm
					{
						OFFSET 0.032408 0.006661 -0.000682
						CHANNELS 6 Xposition Yposition Zposition Xrotation Yrotation Zrotation
						JOINT LeftForeArm
						{
							OFFSET 0.070179 0.000000 0.000000
							CHANNELS 6 Xposition Yposition Zposition Xrotation Yrotation Zrotation
							JOINT LeftHand
							{
								OFFSET 0.070717 0.000000 0.000000
								CHANNELS 6 Xposition Yposition Zposition Xrotation Yrotation Zrotation
								JOINT LeftHandThumb1
								{
									OFFSET 0.009703 -0.007690 -0.005550
									CHANNELS 6 Xposition Yposition Zposition Xrotation Yrotation Zrotation
									JOINT LeftHandThumb2
									{
										OFFSET 0.009412 -0.005434 -0.005434
										CHANNELS 6 Xposition Yposition Zposition Xrotation Yrotation Zrotation
										JOINT LeftHandThumb3
										{
											OFFSET 0.008692 -0.005019 -0.005019
											CHANNELS 6 Xposition Yposition Zposition Xrotation Yrotation Zrotation
											JOINT LeftHandThumb4
											{
												OFFSET 0.006862 -0.003962 -0.003962
												CHANNELS 6 Xposition Yposition Zposition Xrotation Yrotation Zrotation
												End Site
												{
													OFFSET 0.006147 -0.005031 -0.003920
												}
											}
										}
									}
								}
								JOINT LeftHandIndex1
								{
									OFFSET 0.031413 -0.007227 -0.000594
									CHANNELS 6 Xposition Yposition Zposition Xrotation Yrotation Zrotation
									JOINT LeftHandIndex2
									{
										OFFSET 0.009967 0.000000 0.000000
										CHANNELS 6 Xposition Yposition Zposition Xrotation Yrotation Zrotation
										JOINT LeftHandIndex3
										{
											OFFSET 0.008746 0.000000 0.000000
											CHANNELS 6 Xposition Yposition Zposition Xrotation Yrotation Zrotation
											JOINT LeftHandIndex4
											{
												OFFSET 0.007882 0.000000 0.000000
												CHANNELS 6 Xposition Yposition Zposition Xrotation Yrotation Zrotation
												End Site
												{
													OFFSET 0.007882 -0.000000 0.000000
												}
											}
										}
									}
								}
								JOINT LeftHandMiddle1
								{
									OFFSET 0.032716 0.000000 0.000000
									CHANNELS 6 Xposition Yposition Zposition Xrotation Yrotation Zrotation
									JOINT LeftHandMiddle2
									{
										OFFSET 0.009255 0.000000 0.000000
										CHANNELS 6 Xposition Yposition Zposition Xrotation Yrotation Zrotation
										JOINT LeftHandMiddle3
										{
											OFFSET 0.008860 0.000000 0.000000
											CHANNELS 6 Xposition Yposition Zposition Xrotation Yrotation Zrotation
											JOINT LeftHandMiddle4
											{
												OFFSET 0.009424 0.000000 0.000000
												CHANNELS 6 Xposition Yposition Zposition Xrotation Yrotation Zrotation
												End Site
												{
													OFFSET 0.009424 0.000012 0.000000
												}
											}
										}
									}
								}
								JOINT LeftHandRing1
								{
									OFFSET 0.031107 0.005676 0.000026
									CHANNELS 6 Xposition Yposition Zposition Xrotation Yrotation Zrotation
									JOINT LeftHandRing2
									{
										OFFSET 0.009222 0.000000 0.000000
										CHANNELS 6 Xposition Yposition Zposition Xrotation Yrotation Zrotation
										JOINT LeftHandRing3
										{
											OFFSET 0.008470 0.000000 0.000000
											CHANNELS 6 Xposition Yposition Zposition Xrotation Yrotation Zrotation
											JOINT LeftHandRing4
											{
												OFFSET 0.009373 0.000000 0.000000
												CHANNELS 6 Xposition Yposition Zposition Xrotation Yrotation Zrotation
												End Site
												{
													OFFSET 0.009373 -0.000014 -0.000000
												}
											}
										}
									}
								}
								JOINT LeftHandPinky1
								{
									OFFSET 0.027934 0.012102 -0.000579
									CHANNELS 6 Xposition Yposition Zposition Xrotation Yrotation Zrotation
									JOINT LeftHandPinky2
									{
										OFFSET 0.010593 0.000000 0.000000
										CHANNELS 6 Xposition Yposition Zposition Xrotation Yrotation Zrotation
										JOINT LeftHandPinky3
										{
											OFFSET 0.006645 0.000000 0.000000
											CHANNELS 6 Xposition Yposition Zposition Xrotation Yrotation Zrotation
											JOINT LeftHandPinky4
											{
												OFFSET 0.007488 0.000000 0.000000
												CHANNELS 6 Xposition Yposition Zposition Xrotation Yrotation Zrotation
												End Site
												{
													OFFSET 0.007488 0.000009 0.000000
												}
											}
										}
									}
								}
							}
						}
					}
				}
				JOINT RightShoulder
				{
					OFFSET -0.015638 -0.001807 0.023329
					CHANNELS 6 Xposition Yposition Zposition Xrotation Yrotation Zrotation
					JOINT RightArm
					{
						OFFSET -0.032408 0.006661 -0.000680
						CHANNELS 6 Xposition Yposition Zposition Xrotation Yrotation Zrotation
						JOINT RightForeArm
						{
							OFFSET -0.070179 0.000000 0.000000
							CHANNELS 6 Xposition Yposition Zposition Xrotation Yrotation Zrotation
							JOINT RightHand
							{
								OFFSET -0.070717 0.000000 0.000000
								CHANNELS 6 Xposition Yposition Zposition Xrotation Yrotation Zrotation
								JOINT RightHandThumb1
								{
									OFFSET -0.009703 -0.007690 -0.005550
									CHANNELS 6 Xposition Yposition Zposition Xrotation Yrotation Zrotation
									JOINT RightHandThumb2
									{
										OFFSET -0.009412 -0.005434 -0.005434
										CHANNELS 6 Xposition Yposition Zposition Xrotation Yrotation Zrotation
										JOINT RightHandThumb3
										{
											OFFSET -0.008692 -0.005019 -0.005019
											CHANNELS 6 Xposition Yposition Zposition Xrotation Yrotation Zrotation
											JOINT RightHandThumb4
											{
												OFFSET -0.006862 -0.003962 -0.003962
												CHANNELS 6 Xposition Yposition Zposition Xrotation Yrotation Zrotation
												End Site
												{
													OFFSET -0.006143 -0.005035 -0.003922
												}
											}
										}
									}
								}
								JOINT RightHandIndex1
								{
									OFFSET -0.031413 -0.007227 -0.000594
									CHANNELS 6 Xposition Yposition Zposition Xrotation Yrotation Zrotation
									JOINT RightHandIndex2
									{
										OFFSET -0.009967 0.000000 0.000000
										CHANNELS 6 Xposition Yposition Zposition Xrotation Yrotation Zrotation
										JOINT RightHandIndex3
										{
											OFFSET -0.008746 0.000000 0.000000
											CHANNELS 6 Xposition Yposition Zposition Xrotation Yrotation Zrotation
											JOINT RightHandIndex4
											{
												OFFSET -0.007882 0.000000 0.000000
												CHANNELS 6 Xposition Yposition Zposition Xrotation Yrotation Zrotation
												End Site
												{
													OFFSET -0.007882 0.000022 0.000001
												}
											}
										}
									}
								}
								JOINT RightHandMiddle1
								{
									OFFSET -0.032716 0.000000 0.000000
									CHANNELS 6 Xposition Yposition Zposition Xrotation Yrotation Zrotation
									JOINT RightHandMiddle2
									{
										OFFSET -0.009255 0.000000 0.000000
										CHANNELS 6 Xposition Yposition Zposition Xrotation Yrotation Zrotation
										JOINT RightHandMiddle3
										{
											OFFSET -0.008860 0.000000 0.000000
											CHANNELS 6 Xposition Yposition Zposition Xrotation Yrotation Zrotation
											JOINT RightHandMiddle4
											{
												OFFSET -0.009424 0.000000 0.000000
												CHANNELS 6 Xposition Yposition Zposition Xrotation Yrotation Zrotation
												End Site
												{
													OFFSET -0.009424 -0.000032 0.000001
												}
											}
										}
									}
								}
								JOINT RightHandRing1
								{
									OFFSET -0.031107 0.005676 0.000026
									CHANNELS 6 Xposition Yposition Zposition Xrotation Yrotation Zrotation
									JOINT RightHandRing2
									{
										OFFSET -0.009222 0.000000 0.000000
										CHANNELS 6 Xposition Yposition Zposition Xrotation Yrotation Zrotation
										JOINT RightHandRing3
										{
											OFFSET -0.008470 0.000000 0.000000
											CHANNELS 6 Xposition Yposition Zposition Xrotation Yrotation Zrotation
											JOINT RightHandRing4
											{
												OFFSET -0.009373 0.000000 0.000000
												CHANNELS 6 Xposition Yposition Zposition Xrotation Yrotation Zrotation
												End Site
												{
													OFFSET -0.009373 -0.000006 0.000001
												}
											}
										}
									}
								}
								JOINT RightHandPinky1
								{
									OFFSET -0.027934 0.012102 -0.000579
									CHANNELS 6 Xposition Yposition Zposition Xrotation Yrotation Zrotation
									JOINT RightHandPinky2
									{
										OFFSET -0.010593 0.000000 0.000000
										CHANNELS 6 Xposition Yposition Zposition Xrotation Yrotation Zrotation
										JOINT RightHandPinky3
										{
											OFFSET -0.006645 0.000000 0.000000
											CHANNELS 6 Xposition Yposition Zposition Xrotation Yrotation Zrotation
											JOINT RightHandPinky4
											{
												OFFSET -0.007488 0.000000 0.000000
												CHANNELS 6 Xposition Yposition Zposition Xrotation Yrotation Zrotation
												End Site
												{
													OFFSET -0.007488 0.000033 0.000002
												}
											}
										}
									}
								}
							}
						}
					}
				}
			}
		}
	}
	JOINT LeftUpLeg
	{
		OFFSET 0.023366 0.000142 -0.017046
		CHANNELS 6 Xposition Yposition Zposition Xrotation Yrotation Zrotation
		JOINT LeftLeg
		{
			OFFSET 0.000627 0.001320 -0.103959
			CHANNELS 6 Xposition Yposition Zposition Xrotation Yrotation Zrotation
			JOINT LeftFoot
			{
				OFFSET -0.000627 0.005273 -0.107679
				CHANNELS 6 Xposition Yposition Zposition Xrotation Yrotation Zrotation
				JOINT LeftToeBase
				{
					OFFSET 0.000957 -0.035766 -0.018460
					CHANNELS 6 Xposition Yposition Zposition Xrotation Yrotation Zrotation
					JOINT LeftToe_End
					{
						OFFSET -0.000364 -0.025602 -0.000449
						CHANNELS 6 Xposition Yposition Zposition Xrotation Yrotation Zrotation
						End Site
						{
							OFFSET -0.000364 -0.025602 -0.000449
						}
					}
				}
			}
		}
	}
	JOINT RightUpLeg
	{
		OFFSET -0.023366 0.000142 -0.017046
		CHANNELS 6 Xposition Yposition Zposition Xrotation Yrotation Zrotation
		JOINT RightLeg
		{
			OFFSET -0.000627 0.001317 -0.103959
			CHANNELS 6 Xposition Yposition Zposition Xrotation Yrotation Zrotation
			JOINT RightFoot
			{
				OFFSET 0.000627 0.005277 -0.107678
				CHANNELS 6 Xposition Yposition Zposition Xrotation Yrotation Zrotation
				JOINT RightToeBase
				{
					OFFSET -0.000957 -0.035766 -0.018460
					CHANNELS 6 Xposition Yposition Zposition Xrotation Yrotation Zrotation
					JOINT RightToe_End
					{
						OFFSET 0.000363 -0.025602 -0.000448
						CHANNELS 6 Xposition Yposition Zposition Xrotation Yrotation Zrotation
						End Site
						{
							OFFSET 0.000363 -0.025602 -0.000448
						}
					}
				}
			}
		}
	}
}
MOTION
Frames: 3
Frame Time: 0.033333
-0.002679 -0.300827 -3.009592 6.425920 -1.017512 1.804747 0.000000 0.003141 0.025415 5.469980 1.518899 5.541576 -0.000003 0.003642 0.029822 0.357203 1.052760 1.524330 -0.000003 0.004165 0.034213 0.347131 1.063287 1.532310 -0.000001 -0.002027 0.038496 -4.259436 5.630015 6.835139 -0.000005 -0.008052 0.026443 -18.910905 -1.627696 66.971248 -0.000006 -0.016993 0.047326 0.000000 -0.000001 -0.000001 0.015634 -0.001804 0.023364 1.750649 11.626920 -6.128265 0.032408 0.006661 -0.000682 51.663828 48.659702 -47.762369 0.070179 -0.000000 -0.000000 -34.433719 13.573572 -29.266958 0.070717 0.000000 0.000000 -3.399766 -9.001285 20.785461 0.009717 -0.007695 -0.005548 40.839323 -29.764793 -11.066834 0.009413 -0.005427 -0.005420 -4.144179 5.700897 23.149096 0.008687 -0.005022 -0.005027 -37.251135 -18.197318 -34.288629 0.006845 -0.003959 -0.003969 -0.000003 -0.000005 0.000002 0.031426 -0.007226 -0.000588 -0.695477 18.965209 1.251823 0.009967 0.000000 0.000000 -0.424988 21.167636 2.274169 0.008746 0.000000 0.000000 -0.012442 3.730555 0.382824 0.007882 0.000000 -0.000000 -0.000000 -0.000005 -0.000002 0.032727 -0.000002 0.000001 8.490898 23.905927 0.560892 0.009254 0.000000 -0.000000 -0.277233 12.869029 2.289251 0.008860 0.000000 -0.000000 -0.463538 3.907955 1.238237 0.009424 -0.000000 -0.000000 -0.000000 0.000002 0.000000 0.031130 0.005681 0.000042 -2.346128 15.571122 11.952152 0.009222 0.000000 -0.000000 -3.890524 34.765017 3.596649 0.008469 -0.000000 -0.000000 -3.022823 14.619853 1.232002 0.009373 -0.000000 0.000000 0.000000 -0.000000 0.000003 0.027948 0.012103 -0.000576 3.829407 13.397798 17.409946 0.010594 -0.000000 -0.000000 -1.080891 32.363902 3.723587 0.006645 0.000000 -0.000000 -1.080897 32.363881 3.723599 0.007488 0.000000 0.000000 -0.000008 0.000000 0.000001 -0.015638 -0.001807 0.023324 3.313049 -15.426455 11.721224 -0.032408 0.006661 -0.000679 71.280687 -56.388245 55.168353 -0.070179 -0.000000 0.000000 -46.017300 -2.760595 20.883490 -0.070717 0.000000 0.000000 -11.689595 -2.330121 -1.459600 -0.009691 -0.007694 -0.005560 -2.571218 16.206074 9.855224 -0.009408 -0.005435 -0.005434 0.117945 0.164262 -6.536009 -0.008708 -0.005021 -0.005016 4.622574 -0.442285 -0.659762 -0.006860 -0.003966 -0.003943 0.000003 0.000003 0.000000 -0.031406 -0.007226 -0.000576 -0.205814 -5.412498 -4.158994 -0.009967 0.000000 -0.000000 -0.090966 -11.220602 -0.925948 -0.008746 0.000000 0.000000 -0.126961 13.215004 1.096089 -0.007882 -0.000000 -0.000000 0.000000 0.000000 0.000000 -0.032724 0.000003 0.000002 0.382391 -16.073616 -7.075362 -0.009255 0.000000 -0.000000 -0.067533 -9.688290 -0.796865 -0.008860 -0.000000 0.000000 -0.001422 -1.406676 -0.114608 -0.009425 -0.000000 0.000000 -0.000001 0.000003 0.000000 -0.031116 0.005678 0.000034 3.165902 -19.864099 -7.561738 -0.009222 0.000000 0.000000 -0.045340 -7.953458 -0.652115 -0.008470 0.000000 -0.000000 -0.085309 -10.871804 -0.896447 -0.009373 -0.000000 -0.000000 0.000001 -0.000004 -0.000000 -0.027929 0.012122 -0.000562 -14.037285 -0.007530 -39.653312 -0.010593 -0.000000 -0.000000 -0.507211 -25.575444 -2.234362 -0.006645 -0.000000 0.000000 -0.507209 -25.575420 -2.234352 -0.007488 0.000000 0.000000 -0.000004 -0.000001 -0.000000 0.023367 0.000141 -0.017065 -17.839083 0.329768 2.463590 0.000627 0.001320 -0.103959 27.938805 0.551693 -4.341190 -0.000627 0.005273 -0.107679 -16.411420 -1.358221 -0.357774 0.000957 -0.035766 -0.018460 -2.651491 1.844038 2.213968 -0.000364 -0.025602 -0.000449 -0.000000 0.000000 0.000000 -0.023366 0.000142 -0.017057 -11.513040 -3.202185 -12.319304 -0.000627 0.001317 -0.103959 23.722758 2.600635 -0.957844 0.000627 0.005277 -0.107678 -19.624551 2.624126 0.550624 -0.000957 -0.035766 -0.018460 -3.010373 2.153599 2.721786 0.000363 -0.025602 -0.000448 0.000000 -0.000000 0.000000 
-0.079720 -0.536793 -2.984750 6.059133 -0.696362 3.085524 0.000000 0.003144 0.025405 5.606539 1.683219 5.604679 -0.000003 0.003642 0.029822 0.410728 1.075221 1.547489 -0.000003 0.004165 0.034213 0.400171 1.086536 1.555749 -0.000002 -0.002030 0.038516 -4.132848 5.581173 6.393195 -0.000005 -0.008050 0.026444 -20.234118 -1.657541 62.540053 -0.000009 -0.016995 0.047341 0.000002 0.000001 -0.000001 0.015632 -0.001812 0.023323 1.731137 11.671315 -6.007081 0.032408 0.006661 -0.000683 51.856261 48.694082 -47.570341 0.070180 -0.000000 -0.000000 -31.633236 13.621955 -31.187801 0.070717 0.000000 0.000000 -3.319331 -7.885748 21.796035 0.009705 -0.007696 -0.005548 37.787414 -30.364692 -10.498718 0.009411 -0.005431 -0.005418 -1.870787 7.037616 21.548164 0.008696 -0.005026 -0.005027 -36.575578 -17.361692 -33.697473 0.006861 -0.003953 -0.003944 -0.000003 0.000006 0.000001 0.031417 -0.007228 -0.000592 -0.970606 18.800985 0.653712 0.009966 -0.000000 -0.000000 -0.431949 21.330250 2.293374 0.008745 0.000000 -0.000000 -0.013735 3.919759 0.402299 0.007882 0.000000 -0.000000 -0.000000 -0.000001 -0.000001 0.032718 -0.000003 -0.000002 8.212795 24.919102 0.146506 0.009255 -0.000000 -0.000000 -0.290389 13.394298 2.347225 0.008860 -0.000000 -0.000000 -0.467643 4.415937 1.294614 0.009424 -0.000000 -0.000000 0.000000 -0.000004 -0.000001 0.031114 0.005676 0.000042 -2.498429 15.322256 11.358420 0.009222 0.000000 -0.000000 -3.946885 35.302492 3.711217 0.008469 -0.000000 0.000000 -3.033282 15.168863 1.317539 0.009373 -0.000000 0.000000 -0.000003 0.000000 -0.000002 0.027937 0.012101 -0.000559 3.532941 13.113897 16.182166 0.010593 -0.000000 -0.000000 -1.060053 32.091675 3.684529 0.006645 -0.000000 0.000000 -1.053854 32.009866 3.672842 0.007488 0.000000 0.000000 0.000003 0.000000 -0.000000 -0.015640 -0.001812 0.023334 3.259150 -15.113146 11.616670 -0.032408 0.006660 -0.000680 73.568200 -56.780681 57.065356 -0.070179 0.000000 0.000000 -47.777344 -2.172037 21.537299 -0.070716 0.000000 0.000000 -11.730087 -3.281956 -2.124156 -0.009700 -0.007691 -0.005545 -5.027116 17.683904 9.619327 -0.009393 -0.005431 -0.005434 2.160295 -1.160537 -4.903513 -0.008723 -0.005020 -0.004990 4.992580 -1.332195 -0.782926 -0.006859 -0.003964 -0.003967 0.000008 0.000001 -0.000002 -0.031415 -0.007225 -0.000579 -0.615027 -5.265852 -3.581762 -0.009967 -0.000000 0.000000 -0.094187 -11.414552 -0.942386 -0.008746 0.000000 0.000000 -0.121902 12.954716 1.073733 -0.007882 -0.000000 0.000000 -0.000000 0.000000 0.000001 -0.032717 0.000003 -0.000002 0.055169 -17.152425 -6.780015 -0.009255 0.000000 0.000000 -0.075641 -10.245658 -0.843671 -0.008860 -0.000000 -0.000000 -0.002646 -1.924201 -0.156812 -0.009424 0.000000 0.000000 0.000000 -0.000001 0.000001 -0.031110 0.005679 0.000037 3.032676 -19.548157 -7.007508 -0.009222 -0.000000 -0.000000 -0.053468 -8.631518 -0.708528 -0.008470 -0.000000 -0.000000 -0.094588 -11.438326 -0.944400 -0.009373 0.000000 0.000000 0.000000 -0.000002 0.000000 -0.027934 0.012118 -0.000562 -14.534888 -0.202726 -38.364411 -0.010593 0.000001 -0.000000 -0.498579 -25.374720 -2.214279 -0.006645 -0.000000 -0.000000 -0.493136 -25.246980 -2.201546 -0.007488 -0.000000 -0.000000 -0.000001 -0.000001 -0.000006 0.023367 0.000142 -0.017051 -17.474546 0.317206 1.914517 0.000627 0.001320 -0.103959 28.067979 0.223423 -5.169893 -0.000627 0.005273 -0.107679 -16.689680 -1.362637 -0.296583 0.000957 -0.035766 -0.018460 -2.564040 2.263086 2.195916 -0.000364 -0.025602 -0.000449 -0.000000 0.000000 -0.000000 -0.023366 0.000142 -0.017054 -10.675784 -3.550066 -12.269818 -0.000627 0.001317 -0.103959 23.229400 2.218807 -2.193157 0.000627 0.005277 -0.107678 -19.647123 2.959428 0.687740 -0.000957 -0.035766 -0.018460 -3.060986 2.121852 2.647557 0.000363 -0.025602 -0.000448 0.000000 -0.000001 0.000001 
-0.148402 -0.715454 -3.080804 5.703548 -0.287069 4.706633 0.000000 0.003143 0.025414 5.781328 1.686482 5.360390 -0.000003 0.003642 0.029822 0.464843 1.056435 1.482123 -0.000003 0.004165 0.034214 0.454798 1.067647 1.490327 -0.000003 -0.002024 0.038505 -3.894588 5.364980 5.838043 -0.000001 -0.008047 0.026445 -20.866817 -1.456998 56.934186 0.000001 -0.016995 0.047311 -0.000001 0.000000 -0.000002 0.015629 -0.001803 0.023312 1.839658 12.245098 -6.419194 0.032408 0.006660 -0.000682 51.506887 49.055399 -46.134277 0.070180 -0.000000 0.000000 -29.544270 13.953197 -33.370518 0.070717 -0.000000 -0.000000 -3.327052 -6.990254 22.192463 0.009704 -0.007706 -0.005541 34.339736 -30.888093 -10.239495 0.009430 -0.005436 -0.005427 0.914109 8.532345 19.765830 0.008699 -0.005011 -0.005027 -35.631031 -16.254778 -32.924073 0.006863 -0.003959 -0.003950 -0.000006 0.000004 -0.000004 0.031414 -0.007226 -0.000598 -1.252675 18.404428 -0.013838 0.009967 -0.000000 0.000000 -0.434728 21.394693 2.300995 0.008745 0.000000 -0.000000 -0.014721 4.056208 0.416345 0.007882 -0.000000 0.000000 -0.000000 -0.000003 -0.000002 0.032727 -0.000001 0.000002 7.832605 25.777834 -0.270066 0.009255 -0.000000 0.000000 -0.302567 13.859670 2.387460 0.008860 0.000000 -0.000000 -0.471383 4.832231 1.330933 0.009425 -0.000000 0.000000 -0.000000 -0.000000 0.000000 0.031118 0.005681 0.000041 -2.677606 14.953627 10.592567 0.009222 0.000000 -0.000000 -3.964400 35.700986 3.801163 0.008470 -0.000000 -0.000000 -3.017959 15.594825 1.390151 0.009373 0.000000 -0.000000 0.000001 -0.000000 0.000000 0.027937 0.012103 -0.000578 3.150769 12.826477 14.718576 0.010594 -0.000000 -0.000000 -1.028390 31.670549 3.624554 0.006645 -0.000000 -0.000000 -1.005918 31.366353 3.581579 0.007488 0.000000 -0.000000 0.000003 0.000001 -0.000000 -0.015641 -0.001805 0.023314 3.163817 -14.853380 11.286768 -0.032408 0.006661 -0.000680 74.911247 -57.013392 58.168042 -0.070179 -0.000000 0.000000 -47.145282 -1.126304 22.244915 -0.070717 -0.000000 0.000000 -11.664410 -3.407703 -2.228022 -0.009704 -0.007691 -0.005550 -7.592894 18.843918 9.665580 -0.009405 -0.005429 -0.005445 4.590920 -2.724709 -3.120237 -0.008708 -0.005020 -0.005005 5.379865 -2.355785 -1.332769 -0.006851 -0.003965 -0.003968 0.000006 -0.000003 -0.000000 -0.031413 -0.007226 -0.000572 -1.026564 -4.942431 -2.913480 -0.009967 -0.000000 0.000000 -0.096707 -11.563180 -0.954994 -0.008746 -0.000000 -0.000000 -0.115658 12.625740 1.045550 -0.007882 -0.000000 -0.000000 0.000000 0.000000 0.000001 -0.032715 0.000003 0.000005 -0.296541 -18.123224 -6.411896 -0.009255 -0.000000 -0.000000 -0.084164 -10.798666 -0.890283 -0.008860 0.000000 0.000000 -0.003976 -2.362724 -0.192576 -0.009424 -0.000000 0.000000 0.000000 -0.000002 -0.000000 -0.031122 0.005679 0.000050 2.840499 -19.090240 -6.332000 -0.009222 0.000000 0.000000 -0.063542 -9.400548 -0.772758 -0.008469 -0.000000 -0.000000 -0.102586 -11.904417 -0.983995 -0.009373 0.000000 -0.000000 0.000001 0.000001 -0.000001 -0.027936 0.012114 -0.000561 -15.038198 -0.665091 -36.754986 -0.010594 -0.000000 -0.000000 -0.488978 -25.148996 -2.191788 -0.006645 -0.000000 -0.000000 -0.469160 -24.674065 -2.144724 -0.007488 0.000000 -0.000000 0.000002 0.000002 -0.000003 0.023368 0.000139 -0.017060 -17.569688 0.299184 1.601156 0.000627 0.001320 -0.103959 29.092501 -0.424430 -6.153241 -0.000627 0.005273 -0.107679 -17.802632 -1.282378 -0.033165 0.000957 -0.035766 -0.018460 -2.462110 3.563127 2.353885 -0.000364 -0.025602 -0.000449 0.000000 0.000000 0.000000 -0.023365 0.000142 -0.017056 -10.204309 -3.973683 -12.516949 -0.000627 0.001317 -0.103959 23.269894 2.017167 -3.588162 0.000627 0.005277 -0.107679 -19.989742 3.044479 0.775691 -0.000957 -0.035767 -0.018460 -2.921783 2.039110 2.536839 0.000363 -0.025602 -0.000448 -0.000000 -0.000001 -0.000001 
